<?xml version="1.0" encoding="utf-8" standalone="no"?>
<!DOCTYPE svg PUBLIC "-//W3C//DTD SVG 1.1//EN"
  "http://www.w3.org/Graphics/SVG/1.1/DTD/svg11.dtd">
<svg xmlns:xlink="http://www.w3.org/1999/xlink" width="640.258617pt" height="862.145313pt" viewBox="0 0 640.258617 862.145313" xmlns="http://www.w3.org/2000/svg" version="1.1">
 <metadata>
  <rdf:RDF xmlns:dc="http://purl.org/dc/elements/1.1/" xmlns:cc="http://creativecommons.org/ns#" xmlns:rdf="http://www.w3.org/1999/02/22-rdf-syntax-ns#">
   <cc:Work>
    <dc:type rdf:resource="http://purl.org/dc/dcmitype/StillImage"/>
    <dc:date>2024-12-02T15:57:29.120502</dc:date>
    <dc:format>image/svg+xml</dc:format>
    <dc:creator>
     <cc:Agent>
      <dc:title>Matplotlib v3.9.2, https://matplotlib.org/</dc:title>
     </cc:Agent>
    </dc:creator>
   </cc:Work>
  </rdf:RDF>
 </metadata>
 <defs>
  <style type="text/css">*{stroke-linejoin: round; stroke-linecap: butt}</style>
 </defs>
 <g id="figure_1">
  <g id="patch_1">
   <path d="M 0 862.145313 
L 640.258617 862.145313 
L 640.258617 0 
L 0 0 
z
" style="fill: #ffffff"/>
  </g>
  <g id="axes_1">
   <g id="patch_2">
    <path d="M 33.660938 187.982609 
L 591.660938 187.982609 
L 591.660938 7.2 
L 33.660938 7.2 
z
" style="fill: #ffffff"/>
   </g>
   <g id="PolyCollection_1"/>
   <g id="PolyCollection_2"/>
   <g id="matplotlib.axis_1">
    <g id="xtick_1">
     <g id="line2d_1">
      <defs>
       <path id="mfc63cabbc6" d="M 0 0 
L 0 3.5 
" style="stroke: #000000; stroke-width: 0.8"/>
      </defs>
      <g>
       <use xlink:href="#mfc63cabbc6" x="89.460938" y="187.982609" style="stroke: #000000; stroke-width: 0.8"/>
      </g>
     </g>
     <g id="text_1">
      <!-- 996 -->
      <g transform="translate(81.119531 202.140421) scale(0.1 -0.1)">
       <defs>
        <path id="ArialMT-39" d="M 350 1059 
L 891 1109 
Q 959 728 1153 556 
Q 1347 384 1650 384 
Q 1909 384 2104 503 
Q 2300 622 2425 820 
Q 2550 1019 2634 1356 
Q 2719 1694 2719 2044 
Q 2719 2081 2716 2156 
Q 2547 1888 2255 1720 
Q 1963 1553 1622 1553 
Q 1053 1553 659 1965 
Q 266 2378 266 3053 
Q 266 3750 677 4175 
Q 1088 4600 1706 4600 
Q 2153 4600 2523 4359 
Q 2894 4119 3086 3673 
Q 3278 3228 3278 2384 
Q 3278 1506 3087 986 
Q 2897 466 2520 194 
Q 2144 -78 1638 -78 
Q 1100 -78 759 220 
Q 419 519 350 1059 
z
M 2653 3081 
Q 2653 3566 2395 3850 
Q 2138 4134 1775 4134 
Q 1400 4134 1122 3828 
Q 844 3522 844 3034 
Q 844 2597 1108 2323 
Q 1372 2050 1759 2050 
Q 2150 2050 2401 2323 
Q 2653 2597 2653 3081 
z
" transform="scale(0.015625)"/>
        <path id="ArialMT-36" d="M 3184 3459 
L 2625 3416 
Q 2550 3747 2413 3897 
Q 2184 4138 1850 4138 
Q 1581 4138 1378 3988 
Q 1113 3794 959 3422 
Q 806 3050 800 2363 
Q 1003 2672 1297 2822 
Q 1591 2972 1913 2972 
Q 2475 2972 2870 2558 
Q 3266 2144 3266 1488 
Q 3266 1056 3080 686 
Q 2894 316 2569 119 
Q 2244 -78 1831 -78 
Q 1128 -78 684 439 
Q 241 956 241 2144 
Q 241 3472 731 4075 
Q 1159 4600 1884 4600 
Q 2425 4600 2770 4297 
Q 3116 3994 3184 3459 
z
M 888 1484 
Q 888 1194 1011 928 
Q 1134 663 1356 523 
Q 1578 384 1822 384 
Q 2178 384 2434 671 
Q 2691 959 2691 1453 
Q 2691 1928 2437 2201 
Q 2184 2475 1800 2475 
Q 1419 2475 1153 2201 
Q 888 1928 888 1484 
z
" transform="scale(0.015625)"/>
       </defs>
       <use xlink:href="#ArialMT-39"/>
       <use xlink:href="#ArialMT-39" x="55.615234"/>
       <use xlink:href="#ArialMT-36" x="111.230469"/>
      </g>
     </g>
    </g>
    <g id="xtick_2">
     <g id="line2d_2">
      <g>
       <use xlink:href="#mfc63cabbc6" x="201.060937" y="187.982609" style="stroke: #000000; stroke-width: 0.8"/>
      </g>
     </g>
     <g id="text_2">
      <!-- 998 -->
      <g transform="translate(192.719531 202.140421) scale(0.1 -0.1)">
       <defs>
        <path id="ArialMT-38" d="M 1131 2484 
Q 781 2613 612 2850 
Q 444 3088 444 3419 
Q 444 3919 803 4259 
Q 1163 4600 1759 4600 
Q 2359 4600 2725 4251 
Q 3091 3903 3091 3403 
Q 3091 3084 2923 2848 
Q 2756 2613 2416 2484 
Q 2838 2347 3058 2040 
Q 3278 1734 3278 1309 
Q 3278 722 2862 322 
Q 2447 -78 1769 -78 
Q 1091 -78 675 323 
Q 259 725 259 1325 
Q 259 1772 486 2073 
Q 713 2375 1131 2484 
z
M 1019 3438 
Q 1019 3113 1228 2906 
Q 1438 2700 1772 2700 
Q 2097 2700 2305 2904 
Q 2513 3109 2513 3406 
Q 2513 3716 2298 3927 
Q 2084 4138 1766 4138 
Q 1444 4138 1231 3931 
Q 1019 3725 1019 3438 
z
M 838 1322 
Q 838 1081 952 856 
Q 1066 631 1291 507 
Q 1516 384 1775 384 
Q 2178 384 2440 643 
Q 2703 903 2703 1303 
Q 2703 1709 2433 1975 
Q 2163 2241 1756 2241 
Q 1359 2241 1098 1978 
Q 838 1716 838 1322 
z
" transform="scale(0.015625)"/>
       </defs>
       <use xlink:href="#ArialMT-39"/>
       <use xlink:href="#ArialMT-39" x="55.615234"/>
       <use xlink:href="#ArialMT-38" x="111.230469"/>
      </g>
     </g>
    </g>
    <g id="xtick_3">
     <g id="line2d_3">
      <g>
       <use xlink:href="#mfc63cabbc6" x="312.660938" y="187.982609" style="stroke: #000000; stroke-width: 0.8"/>
      </g>
     </g>
     <g id="text_3">
      <!-- 1000 -->
      <g transform="translate(301.539063 202.140421) scale(0.1 -0.1)">
       <defs>
        <path id="ArialMT-31" d="M 2384 0 
L 1822 0 
L 1822 3584 
Q 1619 3391 1289 3197 
Q 959 3003 697 2906 
L 697 3450 
Q 1169 3672 1522 3987 
Q 1875 4303 2022 4600 
L 2384 4600 
L 2384 0 
z
" transform="scale(0.015625)"/>
        <path id="ArialMT-30" d="M 266 2259 
Q 266 3072 433 3567 
Q 600 4063 929 4331 
Q 1259 4600 1759 4600 
Q 2128 4600 2406 4451 
Q 2684 4303 2865 4023 
Q 3047 3744 3150 3342 
Q 3253 2941 3253 2259 
Q 3253 1453 3087 958 
Q 2922 463 2592 192 
Q 2263 -78 1759 -78 
Q 1097 -78 719 397 
Q 266 969 266 2259 
z
M 844 2259 
Q 844 1131 1108 757 
Q 1372 384 1759 384 
Q 2147 384 2411 759 
Q 2675 1134 2675 2259 
Q 2675 3391 2411 3762 
Q 2147 4134 1753 4134 
Q 1366 4134 1134 3806 
Q 844 3388 844 2259 
z
" transform="scale(0.015625)"/>
       </defs>
       <use xlink:href="#ArialMT-31"/>
       <use xlink:href="#ArialMT-30" x="55.615234"/>
       <use xlink:href="#ArialMT-30" x="111.230469"/>
       <use xlink:href="#ArialMT-30" x="166.845703"/>
      </g>
     </g>
    </g>
    <g id="xtick_4">
     <g id="line2d_4">
      <g>
       <use xlink:href="#mfc63cabbc6" x="424.260938" y="187.982609" style="stroke: #000000; stroke-width: 0.8"/>
      </g>
     </g>
     <g id="text_4">
      <!-- 1002 -->
      <g transform="translate(413.139063 202.140421) scale(0.1 -0.1)">
       <defs>
        <path id="ArialMT-32" d="M 3222 541 
L 3222 0 
L 194 0 
Q 188 203 259 391 
Q 375 700 629 1000 
Q 884 1300 1366 1694 
Q 2113 2306 2375 2664 
Q 2638 3022 2638 3341 
Q 2638 3675 2398 3904 
Q 2159 4134 1775 4134 
Q 1369 4134 1125 3890 
Q 881 3647 878 3216 
L 300 3275 
Q 359 3922 746 4261 
Q 1134 4600 1788 4600 
Q 2447 4600 2831 4234 
Q 3216 3869 3216 3328 
Q 3216 3053 3103 2787 
Q 2991 2522 2730 2228 
Q 2469 1934 1863 1422 
Q 1356 997 1212 845 
Q 1069 694 975 541 
L 3222 541 
z
" transform="scale(0.015625)"/>
       </defs>
       <use xlink:href="#ArialMT-31"/>
       <use xlink:href="#ArialMT-30" x="55.615234"/>
       <use xlink:href="#ArialMT-30" x="111.230469"/>
       <use xlink:href="#ArialMT-32" x="166.845703"/>
      </g>
     </g>
    </g>
    <g id="xtick_5">
     <g id="line2d_5">
      <g>
       <use xlink:href="#mfc63cabbc6" x="535.860938" y="187.982609" style="stroke: #000000; stroke-width: 0.8"/>
      </g>
     </g>
     <g id="text_5">
      <!-- 1004 -->
      <g transform="translate(524.739063 202.140421) scale(0.1 -0.1)">
       <defs>
        <path id="ArialMT-34" d="M 2069 0 
L 2069 1097 
L 81 1097 
L 81 1613 
L 2172 4581 
L 2631 4581 
L 2631 1613 
L 3250 1613 
L 3250 1097 
L 2631 1097 
L 2631 0 
L 2069 0 
z
M 2069 1613 
L 2069 3678 
L 634 1613 
L 2069 1613 
z
" transform="scale(0.015625)"/>
       </defs>
       <use xlink:href="#ArialMT-31"/>
       <use xlink:href="#ArialMT-30" x="55.615234"/>
       <use xlink:href="#ArialMT-30" x="111.230469"/>
       <use xlink:href="#ArialMT-34" x="166.845703"/>
      </g>
     </g>
    </g>
   </g>
   <g id="matplotlib.axis_2">
    <g id="ytick_1">
     <g id="line2d_6">
      <defs>
       <path id="me45eaf4a0b" d="M 0 0 
L -3.5 0 
" style="stroke: #000000; stroke-width: 0.8"/>
      </defs>
      <g>
       <use xlink:href="#me45eaf4a0b" x="33.660938" y="187.982609" style="stroke: #000000; stroke-width: 0.8"/>
      </g>
     </g>
     <g id="text_6">
      <!-- 0.00 -->
      <g transform="translate(7.2 191.561515) scale(0.1 -0.1)">
       <defs>
        <path id="ArialMT-2e" d="M 581 0 
L 581 641 
L 1222 641 
L 1222 0 
L 581 0 
z
" transform="scale(0.015625)"/>
       </defs>
       <use xlink:href="#ArialMT-30"/>
       <use xlink:href="#ArialMT-2e" x="55.615234"/>
       <use xlink:href="#ArialMT-30" x="83.398438"/>
       <use xlink:href="#ArialMT-30" x="139.013672"/>
      </g>
     </g>
    </g>
    <g id="ytick_2">
     <g id="line2d_7">
      <g>
       <use xlink:href="#me45eaf4a0b" x="33.660938" y="150.602619" style="stroke: #000000; stroke-width: 0.8"/>
      </g>
     </g>
     <g id="text_7">
      <!-- 0.05 -->
      <g transform="translate(7.2 154.181525) scale(0.1 -0.1)">
       <defs>
        <path id="ArialMT-35" d="M 266 1200 
L 856 1250 
Q 922 819 1161 601 
Q 1400 384 1738 384 
Q 2144 384 2425 690 
Q 2706 997 2706 1503 
Q 2706 1984 2436 2262 
Q 2166 2541 1728 2541 
Q 1456 2541 1237 2417 
Q 1019 2294 894 2097 
L 366 2166 
L 809 4519 
L 3088 4519 
L 3088 3981 
L 1259 3981 
L 1013 2750 
Q 1425 3038 1878 3038 
Q 2478 3038 2890 2622 
Q 3303 2206 3303 1553 
Q 3303 931 2941 478 
Q 2500 -78 1738 -78 
Q 1113 -78 717 272 
Q 322 622 266 1200 
z
" transform="scale(0.015625)"/>
       </defs>
       <use xlink:href="#ArialMT-30"/>
       <use xlink:href="#ArialMT-2e" x="55.615234"/>
       <use xlink:href="#ArialMT-30" x="83.398438"/>
       <use xlink:href="#ArialMT-35" x="139.013672"/>
      </g>
     </g>
    </g>
    <g id="ytick_3">
     <g id="line2d_8">
      <g>
       <use xlink:href="#me45eaf4a0b" x="33.660938" y="113.222629" style="stroke: #000000; stroke-width: 0.8"/>
      </g>
     </g>
     <g id="text_8">
      <!-- 0.10 -->
      <g transform="translate(7.2 116.801535) scale(0.1 -0.1)">
       <use xlink:href="#ArialMT-30"/>
       <use xlink:href="#ArialMT-2e" x="55.615234"/>
       <use xlink:href="#ArialMT-31" x="83.398438"/>
       <use xlink:href="#ArialMT-30" x="139.013672"/>
      </g>
     </g>
    </g>
    <g id="ytick_4">
     <g id="line2d_9">
      <g>
       <use xlink:href="#me45eaf4a0b" x="33.660938" y="75.842639" style="stroke: #000000; stroke-width: 0.8"/>
      </g>
     </g>
     <g id="text_9">
      <!-- 0.15 -->
      <g transform="translate(7.2 79.421545) scale(0.1 -0.1)">
       <use xlink:href="#ArialMT-30"/>
       <use xlink:href="#ArialMT-2e" x="55.615234"/>
       <use xlink:href="#ArialMT-31" x="83.398438"/>
       <use xlink:href="#ArialMT-35" x="139.013672"/>
      </g>
     </g>
    </g>
    <g id="ytick_5">
     <g id="line2d_10">
      <g>
       <use xlink:href="#me45eaf4a0b" x="33.660938" y="38.462649" style="stroke: #000000; stroke-width: 0.8"/>
      </g>
     </g>
     <g id="text_10">
      <!-- 0.20 -->
      <g transform="translate(7.2 42.041555) scale(0.1 -0.1)">
       <use xlink:href="#ArialMT-30"/>
       <use xlink:href="#ArialMT-2e" x="55.615234"/>
       <use xlink:href="#ArialMT-32" x="83.398438"/>
       <use xlink:href="#ArialMT-30" x="139.013672"/>
      </g>
     </g>
    </g>
   </g>
   <g id="line2d_11">
    <path d="M 33.660938 185.312934 
L 43.605492 184.408583 
L 52.629254 183.367876 
L 60.916383 182.191787 
L 68.651037 180.872437 
L 75.955987 179.402085 
L 82.892621 177.779442 
L 89.522324 176.000398 
L 95.906482 174.056742 
L 102.045096 171.957185 
L 108.060938 169.664642 
L 113.954007 167.179487 
L 119.724304 164.504446 
L 125.433215 161.612168 
L 131.080739 158.501949 
L 136.728264 155.137243 
L 142.375789 151.513251 
L 148.0847 147.583756 
L 153.854997 143.340164 
L 159.748066 138.727415 
L 165.763908 133.735036 
L 172.025294 128.247054 
L 178.593611 122.189852 
L 185.591631 115.428778 
L 193.264898 107.699401 
L 202.165888 98.40616 
L 214.565888 85.104661 
L 232.122324 66.300012 
L 240.409452 57.766875 
L 247.223314 51.060507 
L 253.239155 45.443156 
L 258.702522 40.637719 
L 263.797571 36.447348 
L 268.58569 32.794447 
L 273.128264 29.607239 
L 277.425294 26.860017 
L 281.538165 24.488894 
L 285.528264 22.441949 
L 289.395591 20.705841 
L 293.140145 19.26511 
L 296.823314 18.084872 
L 300.445096 17.158345 
L 304.005492 16.47751 
L 307.504502 16.033271 
L 311.003512 15.813689 
L 314.502522 15.819627 
L 318.001532 16.051062 
L 321.500541 16.507085 
L 324.999551 17.185908 
L 328.559947 18.102589 
L 332.18173 19.26511 
L 335.864898 20.680297 
L 339.670838 22.383037 
L 343.599551 24.388842 
L 347.651037 26.711231 
L 351.825294 29.361324 
L 356.18371 32.391907 
L 360.78767 35.866712 
L 365.637175 39.807016 
L 370.854997 44.33714 
L 376.502522 49.539866 
L 382.763908 55.617495 
L 389.946086 62.909156 
L 398.847076 72.28094 
L 415.48272 90.203698 
L 427.637175 103.122092 
L 436.292621 112.003381 
L 443.843116 119.438749 
L 450.779749 125.961089 
L 457.28668 131.777886 
L 463.48668 137.027328 
L 469.502522 141.833634 
L 475.395591 146.259029 
L 481.165888 150.316685 
L 486.874799 154.061901 
L 492.58371 157.54112 
L 498.292621 160.758632 
L 504.001532 163.720869 
L 509.771829 166.463984 
L 515.603512 168.990207 
L 521.557967 171.326559 
L 527.635195 173.47189 
L 533.896581 175.445563 
L 540.342126 177.244444 
L 547.094601 178.896246 
L 554.154007 180.391834 
L 561.58173 181.736555 
L 569.500541 182.941786 
L 578.033215 184.011457 
L 587.302522 184.944852 
L 591.722324 185.317825 
L 591.722324 185.317825 
" clip-path="url(#p98ac78bf24)" style="fill: none; stroke: #1f77b4; stroke-width: 0.8; stroke-linecap: round"/>
   </g>
   <g id="line2d_12">
    <path d="M 33.660938 187.555782 
L 52.752027 187.152848 
L 67.791631 186.619742 
L 80.375789 185.956377 
L 91.302522 185.162486 
L 101.062918 184.23437 
L 109.963908 183.167063 
L 118.128264 181.967835 
L 125.801532 180.617843 
L 133.045096 179.117947 
L 139.920343 177.46746 
L 146.48866 175.662755 
L 152.811433 173.695997 
L 158.950046 171.553985 
L 164.904502 169.242203 
L 170.736185 166.741359 
L 176.506482 164.02452 
L 182.215393 161.089269 
L 187.862918 157.935226 
L 193.510442 154.525711 
L 199.157967 150.856299 
L 204.866878 146.880699 
L 210.637175 142.590805 
L 216.530244 137.93165 
L 222.607472 132.840633 
L 228.930244 127.248951 
L 235.559947 121.084078 
L 242.680739 114.15179 
L 250.538165 106.182738 
L 259.807472 96.450003 
L 274.110442 81.058774 
L 288.045096 66.171234 
L 296.270838 57.705058 
L 303.0847 51.00164 
L 309.100541 45.387511 
L 314.563908 40.585491 
L 319.658957 36.39871 
L 324.447076 32.749521 
L 328.98965 29.56612 
L 333.28668 26.822736 
L 337.399551 24.455484 
L 341.38965 22.412462 
L 345.256977 20.680297 
L 349.001532 19.243498 
L 352.6847 18.067222 
L 356.306482 17.144665 
L 359.866878 16.467789 
L 363.365888 16.027479 
L 366.864898 15.811848 
L 370.363908 15.821746 
L 373.862918 16.057131 
L 377.361928 16.517081 
L 380.860938 17.199791 
L 384.421334 18.120372 
L 388.043116 19.286787 
L 391.726284 20.705841 
L 395.532225 22.412462 
L 399.460938 24.422133 
L 403.512423 26.748342 
L 407.68668 29.402176 
L 412.045096 32.436434 
L 416.649056 35.914846 
L 421.559947 39.910273 
L 426.777769 44.447085 
L 432.425294 49.656096 
L 438.68668 55.739507 
L 445.868858 63.036241 
L 454.769848 72.412025 
L 471.957967 90.930154 
L 483.805492 103.506555 
L 492.399551 112.311793 
L 499.88866 119.674928 
L 506.763908 126.129859 
L 513.270838 131.938017 
L 519.470838 137.178714 
L 525.48668 141.976197 
L 531.379749 146.392754 
L 537.150046 150.441676 
L 542.858957 154.178268 
L 548.567868 157.648966 
L 554.276779 160.858133 
L 559.98569 163.812264 
L 565.755987 166.547484 
L 571.58767 169.066079 
L 577.542126 171.395045 
L 583.619353 173.533286 
L 589.880739 175.500149 
L 591.722324 176.035498 
L 591.722324 176.035498 
" clip-path="url(#p98ac78bf24)" style="fill: none; stroke: #ff7f0e; stroke-width: 0.8; stroke-linecap: round"/>
   </g>
   <g id="patch_3">
    <path d="M 33.660938 187.982609 
L 33.660938 7.2 
" style="fill: none; stroke: #000000; stroke-width: 0.8; stroke-linejoin: miter; stroke-linecap: square"/>
   </g>
   <g id="patch_4">
    <path d="M 591.660938 187.982609 
L 591.660938 7.2 
" style="fill: none; stroke: #000000; stroke-width: 0.8; stroke-linejoin: miter; stroke-linecap: square"/>
   </g>
   <g id="patch_5">
    <path d="M 33.660938 187.982609 
L 591.660938 187.982609 
" style="fill: none; stroke: #000000; stroke-width: 0.8; stroke-linejoin: miter; stroke-linecap: square"/>
   </g>
   <g id="patch_6">
    <path d="M 33.660938 7.2 
L 591.660938 7.2 
" style="fill: none; stroke: #000000; stroke-width: 0.8; stroke-linejoin: miter; stroke-linecap: square"/>
   </g>
   <g id="text_11">
    <!-- O1 -->
    <g style="fill: #262626" transform="translate(249.860938 37.223333) scale(0.08328 -0.08328)">
     <defs>
      <path id="ArialMT-4f" d="M 309 2231 
Q 309 3372 921 4017 
Q 1534 4663 2503 4663 
Q 3138 4663 3647 4359 
Q 4156 4056 4423 3514 
Q 4691 2972 4691 2284 
Q 4691 1588 4409 1038 
Q 4128 488 3612 205 
Q 3097 -78 2500 -78 
Q 1853 -78 1343 234 
Q 834 547 571 1087 
Q 309 1628 309 2231 
z
M 934 2222 
Q 934 1394 1379 917 
Q 1825 441 2497 441 
Q 3181 441 3623 922 
Q 4066 1403 4066 2288 
Q 4066 2847 3877 3264 
Q 3688 3681 3323 3911 
Q 2959 4141 2506 4141 
Q 1863 4141 1398 3698 
Q 934 3256 934 2222 
z
" transform="scale(0.015625)"/>
     </defs>
     <use xlink:href="#ArialMT-4f"/>
     <use xlink:href="#ArialMT-31" x="77.783203"/>
    </g>
   </g>
   <g id="text_12">
    <!-- O2 -->
    <g style="fill: #262626" transform="translate(333.560937 17.815711) scale(0.08328 -0.08328)">
     <use xlink:href="#ArialMT-4f"/>
     <use xlink:href="#ArialMT-32" x="77.783203"/>
    </g>
   </g>
   <g id="text_13">
    <!-- O3 -->
    <g style="fill: #262626" transform="translate(473.060937 94.575139) scale(0.08328 -0.08328)">
     <defs>
      <path id="ArialMT-33" d="M 269 1209 
L 831 1284 
Q 928 806 1161 595 
Q 1394 384 1728 384 
Q 2125 384 2398 659 
Q 2672 934 2672 1341 
Q 2672 1728 2419 1979 
Q 2166 2231 1775 2231 
Q 1616 2231 1378 2169 
L 1441 2663 
Q 1497 2656 1531 2656 
Q 1891 2656 2178 2843 
Q 2466 3031 2466 3422 
Q 2466 3731 2256 3934 
Q 2047 4138 1716 4138 
Q 1388 4138 1169 3931 
Q 950 3725 888 3313 
L 325 3413 
Q 428 3978 793 4289 
Q 1159 4600 1703 4600 
Q 2078 4600 2393 4439 
Q 2709 4278 2876 4000 
Q 3044 3722 3044 3409 
Q 3044 3113 2884 2869 
Q 2725 2625 2413 2481 
Q 2819 2388 3044 2092 
Q 3269 1797 3269 1353 
Q 3269 753 2831 336 
Q 2394 -81 1725 -81 
Q 1122 -81 723 278 
Q 325 638 269 1209 
z
" transform="scale(0.015625)"/>
     </defs>
     <use xlink:href="#ArialMT-4f"/>
     <use xlink:href="#ArialMT-33" x="77.783203"/>
    </g>
   </g>
   <g id="PathCollection_1">
    <defs>
     <path id="mf51d7f2014" d="M 0 1.322876 
C 0.350831 1.322876 0.68734 1.183489 0.935414 0.935414 
C 1.183489 0.68734 1.322876 0.350831 1.322876 0 
C 1.322876 -0.350831 1.183489 -0.68734 0.935414 -0.935414 
C 0.68734 -1.183489 0.350831 -1.322876 0 -1.322876 
C -0.350831 -1.322876 -0.68734 -1.183489 -0.935414 -0.935414 
C -1.183489 -0.68734 -1.322876 -0.350831 -1.322876 0 
C -1.322876 0.350831 -1.183489 0.68734 -0.935414 0.935414 
C -0.68734 1.183489 -0.350831 1.322876 0 1.322876 
z
" style="stroke: #000000"/>
    </defs>
    <g clip-path="url(#p98ac78bf24)">
     <use xlink:href="#mf51d7f2014" x="256.860938" y="42.223333" style="stroke: #000000"/>
    </g>
   </g>
   <g id="PathCollection_2">
    <g clip-path="url(#p98ac78bf24)">
     <use xlink:href="#mf51d7f2014" x="340.560937" y="22.815711" style="stroke: #000000"/>
    </g>
   </g>
   <g id="PathCollection_3">
    <g clip-path="url(#p98ac78bf24)">
     <use xlink:href="#mf51d7f2014" x="480.060937" y="99.575139" style="stroke: #000000"/>
    </g>
   </g>
  </g>
  <g id="axes_2">
   <g id="patch_7">
    <path d="M 33.660938 404.921739 
L 591.660938 404.921739 
L 591.660938 224.13913 
L 33.660938 224.13913 
z
" style="fill: #ffffff"/>
   </g>
   <g id="PolyCollection_3"/>
   <g id="matplotlib.axis_3">
    <g id="xtick_6">
     <g id="line2d_13">
      <g>
       <use xlink:href="#mfc63cabbc6" x="89.460938" y="404.921739" style="stroke: #000000; stroke-width: 0.8"/>
      </g>
     </g>
     <g id="text_14">
      <!-- 996 -->
      <g transform="translate(81.119531 419.079552) scale(0.1 -0.1)">
       <use xlink:href="#ArialMT-39"/>
       <use xlink:href="#ArialMT-39" x="55.615234"/>
       <use xlink:href="#ArialMT-36" x="111.230469"/>
      </g>
     </g>
    </g>
    <g id="xtick_7">
     <g id="line2d_14">
      <g>
       <use xlink:href="#mfc63cabbc6" x="201.060937" y="404.921739" style="stroke: #000000; stroke-width: 0.8"/>
      </g>
     </g>
     <g id="text_15">
      <!-- 998 -->
      <g transform="translate(192.719531 419.079552) scale(0.1 -0.1)">
       <use xlink:href="#ArialMT-39"/>
       <use xlink:href="#ArialMT-39" x="55.615234"/>
       <use xlink:href="#ArialMT-38" x="111.230469"/>
      </g>
     </g>
    </g>
    <g id="xtick_8">
     <g id="line2d_15">
      <g>
       <use xlink:href="#mfc63cabbc6" x="312.660938" y="404.921739" style="stroke: #000000; stroke-width: 0.8"/>
      </g>
     </g>
     <g id="text_16">
      <!-- 1000 -->
      <g transform="translate(301.539063 419.079552) scale(0.1 -0.1)">
       <use xlink:href="#ArialMT-31"/>
       <use xlink:href="#ArialMT-30" x="55.615234"/>
       <use xlink:href="#ArialMT-30" x="111.230469"/>
       <use xlink:href="#ArialMT-30" x="166.845703"/>
      </g>
     </g>
    </g>
    <g id="xtick_9">
     <g id="line2d_16">
      <g>
       <use xlink:href="#mfc63cabbc6" x="424.260938" y="404.921739" style="stroke: #000000; stroke-width: 0.8"/>
      </g>
     </g>
     <g id="text_17">
      <!-- 1002 -->
      <g transform="translate(413.139063 419.079552) scale(0.1 -0.1)">
       <use xlink:href="#ArialMT-31"/>
       <use xlink:href="#ArialMT-30" x="55.615234"/>
       <use xlink:href="#ArialMT-30" x="111.230469"/>
       <use xlink:href="#ArialMT-32" x="166.845703"/>
      </g>
     </g>
    </g>
    <g id="xtick_10">
     <g id="line2d_17">
      <g>
       <use xlink:href="#mfc63cabbc6" x="535.860938" y="404.921739" style="stroke: #000000; stroke-width: 0.8"/>
      </g>
     </g>
     <g id="text_18">
      <!-- 1004 -->
      <g transform="translate(524.739063 419.079552) scale(0.1 -0.1)">
       <use xlink:href="#ArialMT-31"/>
       <use xlink:href="#ArialMT-30" x="55.615234"/>
       <use xlink:href="#ArialMT-30" x="111.230469"/>
       <use xlink:href="#ArialMT-34" x="166.845703"/>
      </g>
     </g>
    </g>
   </g>
   <g id="matplotlib.axis_4">
    <g id="ytick_6">
     <g id="line2d_18">
      <g>
       <use xlink:href="#me45eaf4a0b" x="33.660938" y="404.174704" style="stroke: #000000; stroke-width: 0.8"/>
      </g>
     </g>
     <g id="text_19">
      <!-- −2 -->
      <g transform="translate(15.259375 407.75361) scale(0.1 -0.1)">
       <defs>
        <path id="ArialMT-2212" d="M 3381 1997 
L 356 1997 
L 356 2522 
L 3381 2522 
L 3381 1997 
z
" transform="scale(0.015625)"/>
       </defs>
       <use xlink:href="#ArialMT-2212"/>
       <use xlink:href="#ArialMT-32" x="58.398438"/>
      </g>
     </g>
    </g>
    <g id="ytick_7">
     <g id="line2d_19">
      <g>
       <use xlink:href="#me45eaf4a0b" x="33.660938" y="359.352569" style="stroke: #000000; stroke-width: 0.8"/>
      </g>
     </g>
     <g id="text_20">
      <!-- −1 -->
      <g transform="translate(15.259375 362.931475) scale(0.1 -0.1)">
       <use xlink:href="#ArialMT-2212"/>
       <use xlink:href="#ArialMT-31" x="58.398438"/>
      </g>
     </g>
    </g>
    <g id="ytick_8">
     <g id="line2d_20">
      <g>
       <use xlink:href="#me45eaf4a0b" x="33.660938" y="314.530435" style="stroke: #000000; stroke-width: 0.8"/>
      </g>
     </g>
     <g id="text_21">
      <!-- 0 -->
      <g transform="translate(21.1 318.109341) scale(0.1 -0.1)">
       <use xlink:href="#ArialMT-30"/>
      </g>
     </g>
    </g>
    <g id="ytick_9">
     <g id="line2d_21">
      <g>
       <use xlink:href="#me45eaf4a0b" x="33.660938" y="269.7083" style="stroke: #000000; stroke-width: 0.8"/>
      </g>
     </g>
     <g id="text_22">
      <!-- 1 -->
      <g transform="translate(21.1 273.287207) scale(0.1 -0.1)">
       <use xlink:href="#ArialMT-31"/>
      </g>
     </g>
    </g>
    <g id="ytick_10">
     <g id="line2d_22">
      <g>
       <use xlink:href="#me45eaf4a0b" x="33.660938" y="224.886166" style="stroke: #000000; stroke-width: 0.8"/>
      </g>
     </g>
     <g id="text_23">
      <!-- 2 -->
      <g transform="translate(21.1 228.465072) scale(0.1 -0.1)">
       <use xlink:href="#ArialMT-32"/>
      </g>
     </g>
    </g>
   </g>
   <g id="line2d_23">
    <path d="M 33.660938 232.356522 
L 591.722324 381.780073 
L 591.722324 381.780073 
" clip-path="url(#p7ff22b84d0)" style="fill: none; stroke: #1f77b4; stroke-width: 1.5; stroke-linecap: round"/>
   </g>
   <g id="patch_8">
    <path d="M 33.660938 404.921739 
L 33.660938 224.13913 
" style="fill: none; stroke: #000000; stroke-width: 0.8; stroke-linejoin: miter; stroke-linecap: square"/>
   </g>
   <g id="patch_9">
    <path d="M 591.660938 404.921739 
L 591.660938 224.13913 
" style="fill: none; stroke: #000000; stroke-width: 0.8; stroke-linejoin: miter; stroke-linecap: square"/>
   </g>
   <g id="patch_10">
    <path d="M 33.660938 404.921739 
L 591.660938 404.921739 
" style="fill: none; stroke: #000000; stroke-width: 0.8; stroke-linejoin: miter; stroke-linecap: square"/>
   </g>
   <g id="patch_11">
    <path d="M 33.660938 224.13913 
L 591.660938 224.13913 
" style="fill: none; stroke: #000000; stroke-width: 0.8; stroke-linejoin: miter; stroke-linecap: square"/>
   </g>
   <g id="text_24">
    <!-- $\epsilon$ = 0.5 -->
    <g style="fill: #262626" transform="translate(261.860938 302.119368) scale(0.08328 -0.08328)">
     <defs>
      <path id="DejaVuSans-Oblique-3b5" d="M 1263 1888 
Q 925 1963 778 2166 
Q 669 2309 669 2503 
Q 669 3034 1175 3344 
Q 1575 3588 2188 3588 
Q 2425 3588 2684 3550 
Q 2944 3513 3234 3438 
L 3134 2916 
Q 2847 3006 2606 3047 
Q 2359 3088 2138 3088 
Q 1766 3088 1522 2944 
Q 1228 2772 1228 2522 
Q 1228 2356 1381 2241 
Q 1563 2103 1925 2103 
L 2409 2103 
L 2319 1628 
L 1856 1628 
Q 1425 1628 1172 1469 
Q 828 1253 828 916 
Q 828 703 1013 563 
Q 1244 388 1716 388 
Q 2006 388 2284 444 
Q 2563 503 2806 619 
L 2700 84 
Q 2403 -3 2131 -47 
Q 1859 -91 1609 -91 
Q 866 -91 516 194 
Q 250 413 250 781 
Q 250 1278 600 1584 
Q 859 1813 1263 1888 
z
" transform="scale(0.015625)"/>
      <path id="ArialMT-20" transform="scale(0.015625)"/>
      <path id="ArialMT-3d" d="M 3381 2694 
L 356 2694 
L 356 3219 
L 3381 3219 
L 3381 2694 
z
M 3381 1303 
L 356 1303 
L 356 1828 
L 3381 1828 
L 3381 1303 
z
" transform="scale(0.015625)"/>
     </defs>
     <use xlink:href="#DejaVuSans-Oblique-3b5" transform="translate(0 0.125)"/>
     <use xlink:href="#ArialMT-20" transform="translate(54.052734 0.125)"/>
     <use xlink:href="#ArialMT-3d" transform="translate(81.835938 0.125)"/>
     <use xlink:href="#ArialMT-20" transform="translate(140.234375 0.125)"/>
     <use xlink:href="#ArialMT-30" transform="translate(168.017578 0.125)"/>
     <use xlink:href="#ArialMT-2e" transform="translate(223.632812 0.125)"/>
     <use xlink:href="#ArialMT-35" transform="translate(251.416016 0.125)"/>
    </g>
   </g>
   <g id="text_25">
    <!-- $\epsilon$ = 0.0 -->
    <g style="fill: #262626" transform="translate(345.560937 314.530435) scale(0.08328 -0.08328)">
     <use xlink:href="#DejaVuSans-Oblique-3b5" transform="translate(0 0.125)"/>
     <use xlink:href="#ArialMT-20" transform="translate(54.052734 0.125)"/>
     <use xlink:href="#ArialMT-3d" transform="translate(81.835938 0.125)"/>
     <use xlink:href="#ArialMT-20" transform="translate(140.234375 0.125)"/>
     <use xlink:href="#ArialMT-30" transform="translate(168.017578 0.125)"/>
     <use xlink:href="#ArialMT-2e" transform="translate(223.632812 0.125)"/>
     <use xlink:href="#ArialMT-30" transform="translate(251.416016 0.125)"/>
    </g>
   </g>
   <g id="text_26">
    <!-- $\epsilon$ = -0.83 -->
    <g style="fill: #262626" transform="translate(485.060937 345.882213) scale(0.08328 -0.08328)">
     <defs>
      <path id="ArialMT-2d" d="M 203 1375 
L 203 1941 
L 1931 1941 
L 1931 1375 
L 203 1375 
z
" transform="scale(0.015625)"/>
     </defs>
     <use xlink:href="#DejaVuSans-Oblique-3b5" transform="translate(0 0.125)"/>
     <use xlink:href="#ArialMT-20" transform="translate(54.052734 0.125)"/>
     <use xlink:href="#ArialMT-3d" transform="translate(81.835938 0.125)"/>
     <use xlink:href="#ArialMT-20" transform="translate(140.234375 0.125)"/>
     <use xlink:href="#ArialMT-2d" transform="translate(168.017578 0.125)"/>
     <use xlink:href="#ArialMT-30" transform="translate(201.318359 0.125)"/>
     <use xlink:href="#ArialMT-2e" transform="translate(256.933594 0.125)"/>
     <use xlink:href="#ArialMT-38" transform="translate(284.716797 0.125)"/>
     <use xlink:href="#ArialMT-33" transform="translate(340.332031 0.125)"/>
    </g>
   </g>
   <g id="PathCollection_4">
    <g clip-path="url(#p7ff22b84d0)">
     <use xlink:href="#mf51d7f2014" x="256.860938" y="292.119368" style="stroke: #000000"/>
    </g>
   </g>
   <g id="PathCollection_5">
    <g clip-path="url(#p7ff22b84d0)">
     <use xlink:href="#mf51d7f2014" x="340.560937" y="314.530435" style="stroke: #000000"/>
    </g>
   </g>
   <g id="PathCollection_6">
    <g clip-path="url(#p7ff22b84d0)">
     <use xlink:href="#mf51d7f2014" x="480.060937" y="351.882213" style="stroke: #000000"/>
    </g>
   </g>
  </g>
  <g id="axes_3">
   <g id="patch_12">
    <path d="M 33.660938 621.86087 
L 591.660938 621.86087 
L 591.660938 441.078261 
L 33.660938 441.078261 
z
" style="fill: #ffffff"/>
   </g>
   <g id="PolyCollection_4"/>
   <g id="patch_13">
    <path d="M 256.860938 42.223333 
Q 256.860938 309.322171 256.860938 576.421009 
" style="fill: none; stroke-dasharray: 0.5,0.825; stroke-dashoffset: 0; stroke: #000000; stroke-width: 0.5; stroke-linecap: round"/>
   </g>
   <g id="patch_14">
    <path d="M 340.560937 22.815711 
Q 340.560937 308.557956 340.560937 594.300201 
" style="fill: none; stroke-dasharray: 0.5,0.825; stroke-dashoffset: 0; stroke: #000000; stroke-width: 0.5; stroke-linecap: round"/>
   </g>
   <g id="patch_15">
    <path d="M 480.060937 99.575139 
Q 480.060937 354.729096 480.060937 609.883052 
" style="fill: none; stroke-dasharray: 0.5,0.825; stroke-dashoffset: 0; stroke: #000000; stroke-width: 0.5; stroke-linecap: round"/>
   </g>
   <g id="matplotlib.axis_5">
    <g id="xtick_11">
     <g id="line2d_24">
      <g>
       <use xlink:href="#mfc63cabbc6" x="89.460938" y="621.86087" style="stroke: #000000; stroke-width: 0.8"/>
      </g>
     </g>
     <g id="text_27">
      <!-- 996 -->
      <g transform="translate(81.119531 636.018682) scale(0.1 -0.1)">
       <use xlink:href="#ArialMT-39"/>
       <use xlink:href="#ArialMT-39" x="55.615234"/>
       <use xlink:href="#ArialMT-36" x="111.230469"/>
      </g>
     </g>
    </g>
    <g id="xtick_12">
     <g id="line2d_25">
      <g>
       <use xlink:href="#mfc63cabbc6" x="201.060937" y="621.86087" style="stroke: #000000; stroke-width: 0.8"/>
      </g>
     </g>
     <g id="text_28">
      <!-- 998 -->
      <g transform="translate(192.719531 636.018682) scale(0.1 -0.1)">
       <use xlink:href="#ArialMT-39"/>
       <use xlink:href="#ArialMT-39" x="55.615234"/>
       <use xlink:href="#ArialMT-38" x="111.230469"/>
      </g>
     </g>
    </g>
    <g id="xtick_13">
     <g id="line2d_26">
      <g>
       <use xlink:href="#mfc63cabbc6" x="312.660938" y="621.86087" style="stroke: #000000; stroke-width: 0.8"/>
      </g>
     </g>
     <g id="text_29">
      <!-- 1000 -->
      <g transform="translate(301.539063 636.018682) scale(0.1 -0.1)">
       <use xlink:href="#ArialMT-31"/>
       <use xlink:href="#ArialMT-30" x="55.615234"/>
       <use xlink:href="#ArialMT-30" x="111.230469"/>
       <use xlink:href="#ArialMT-30" x="166.845703"/>
      </g>
     </g>
    </g>
    <g id="xtick_14">
     <g id="line2d_27">
      <g>
       <use xlink:href="#mfc63cabbc6" x="424.260938" y="621.86087" style="stroke: #000000; stroke-width: 0.8"/>
      </g>
     </g>
     <g id="text_30">
      <!-- 1002 -->
      <g transform="translate(413.139063 636.018682) scale(0.1 -0.1)">
       <use xlink:href="#ArialMT-31"/>
       <use xlink:href="#ArialMT-30" x="55.615234"/>
       <use xlink:href="#ArialMT-30" x="111.230469"/>
       <use xlink:href="#ArialMT-32" x="166.845703"/>
      </g>
     </g>
    </g>
    <g id="xtick_15">
     <g id="line2d_28">
      <g>
       <use xlink:href="#mfc63cabbc6" x="535.860938" y="621.86087" style="stroke: #000000; stroke-width: 0.8"/>
      </g>
     </g>
     <g id="text_31">
      <!-- 1004 -->
      <g transform="translate(524.739063 636.018682) scale(0.1 -0.1)">
       <use xlink:href="#ArialMT-31"/>
       <use xlink:href="#ArialMT-30" x="55.615234"/>
       <use xlink:href="#ArialMT-30" x="111.230469"/>
       <use xlink:href="#ArialMT-34" x="166.845703"/>
      </g>
     </g>
    </g>
   </g>
   <g id="matplotlib.axis_6">
    <g id="ytick_11">
     <g id="line2d_29">
      <g>
       <use xlink:href="#me45eaf4a0b" x="33.660938" y="621.86087" style="stroke: #000000; stroke-width: 0.8"/>
      </g>
     </g>
     <g id="text_32">
      <!-- 0 -->
      <g transform="translate(21.1 625.439776) scale(0.1 -0.1)">
       <use xlink:href="#ArialMT-30"/>
      </g>
     </g>
    </g>
    <g id="ytick_12">
     <g id="line2d_30">
      <g>
       <use xlink:href="#me45eaf4a0b" x="33.660938" y="594.300201" style="stroke: #000000; stroke-width: 0.8"/>
      </g>
     </g>
     <g id="text_33">
      <!-- 1 -->
      <g transform="translate(21.1 597.879107) scale(0.1 -0.1)">
       <use xlink:href="#ArialMT-31"/>
      </g>
     </g>
    </g>
    <g id="ytick_13">
     <g id="line2d_31">
      <g>
       <use xlink:href="#me45eaf4a0b" x="33.660938" y="566.739532" style="stroke: #000000; stroke-width: 0.8"/>
      </g>
     </g>
     <g id="text_34">
      <!-- 2 -->
      <g transform="translate(21.1 570.318438) scale(0.1 -0.1)">
       <use xlink:href="#ArialMT-32"/>
      </g>
     </g>
    </g>
    <g id="ytick_14">
     <g id="line2d_32">
      <g>
       <use xlink:href="#me45eaf4a0b" x="33.660938" y="539.178863" style="stroke: #000000; stroke-width: 0.8"/>
      </g>
     </g>
     <g id="text_35">
      <!-- 3 -->
      <g transform="translate(21.1 542.757769) scale(0.1 -0.1)">
       <use xlink:href="#ArialMT-33"/>
      </g>
     </g>
    </g>
    <g id="ytick_15">
     <g id="line2d_33">
      <g>
       <use xlink:href="#me45eaf4a0b" x="33.660938" y="511.618194" style="stroke: #000000; stroke-width: 0.8"/>
      </g>
     </g>
     <g id="text_36">
      <!-- 4 -->
      <g transform="translate(21.1 515.197101) scale(0.1 -0.1)">
       <use xlink:href="#ArialMT-34"/>
      </g>
     </g>
    </g>
    <g id="ytick_16">
     <g id="line2d_34">
      <g>
       <use xlink:href="#me45eaf4a0b" x="33.660938" y="484.057526" style="stroke: #000000; stroke-width: 0.8"/>
      </g>
     </g>
     <g id="text_37">
      <!-- 5 -->
      <g transform="translate(21.1 487.636432) scale(0.1 -0.1)">
       <use xlink:href="#ArialMT-35"/>
      </g>
     </g>
    </g>
    <g id="ytick_17">
     <g id="line2d_35">
      <g>
       <use xlink:href="#me45eaf4a0b" x="33.660938" y="456.496857" style="stroke: #000000; stroke-width: 0.8"/>
      </g>
     </g>
     <g id="text_38">
      <!-- 6 -->
      <g transform="translate(21.1 460.075763) scale(0.1 -0.1)">
       <use xlink:href="#ArialMT-36"/>
      </g>
     </g>
    </g>
   </g>
   <g id="line2d_36">
    <path d="M 33.660938 449.477128 
L 40.904502 456.777263 
L 48.209452 463.826213 
L 55.637175 470.685092 
L 63.126284 477.299309 
L 70.738165 483.725488 
L 78.472819 489.962776 
L 86.268858 495.964603 
L 94.18767 501.781426 
L 102.229254 507.413459 
L 110.393611 512.861306 
L 118.742126 518.16397 
L 127.213413 523.280992 
L 135.868858 528.24855 
L 144.647076 533.03096 
L 153.609452 537.661728 
L 162.817373 542.168071 
L 172.209452 546.516167 
L 181.847076 550.731439 
L 191.668858 554.784712 
L 201.797571 558.722882 
L 212.171829 562.516945 
L 222.853017 566.185193 
L 233.841136 569.722379 
L 245.136185 573.124281 
L 256.799551 576.404343 
L 268.831235 579.556831 
L 281.292621 582.591619 
L 294.245096 585.515479 
L 307.68866 588.320179 
L 321.623314 590.999115 
L 336.171829 593.568023 
L 351.334205 596.018037 
L 367.171829 598.350918 
L 383.807472 600.57492 
L 401.302522 602.687223 
L 419.718363 604.684651 
L 439.177769 606.569619 
L 459.803512 608.342243 
L 481.779749 610.005408 
L 505.29064 611.558836 
L 530.520343 613.000165 
L 557.775789 614.33151 
L 587.425294 615.553667 
L 591.722324 615.713508 
L 591.722324 615.713508 
" clip-path="url(#pe1cedd0608)" style="fill: none; stroke: #1f77b4; stroke-width: 1.5; stroke-linecap: round"/>
   </g>
   <g id="patch_16">
    <path d="M 33.660938 621.86087 
L 33.660938 441.078261 
" style="fill: none; stroke: #000000; stroke-width: 0.8; stroke-linejoin: miter; stroke-linecap: square"/>
   </g>
   <g id="patch_17">
    <path d="M 591.660938 621.86087 
L 591.660938 441.078261 
" style="fill: none; stroke: #000000; stroke-width: 0.8; stroke-linejoin: miter; stroke-linecap: square"/>
   </g>
   <g id="patch_18">
    <path d="M 33.660938 621.86087 
L 591.660938 621.86087 
" style="fill: none; stroke: #000000; stroke-width: 0.8; stroke-linejoin: miter; stroke-linecap: square"/>
   </g>
   <g id="patch_19">
    <path d="M 33.660938 441.078261 
L 591.660938 441.078261 
" style="fill: none; stroke: #000000; stroke-width: 0.8; stroke-linejoin: miter; stroke-linecap: square"/>
   </g>
   <g id="text_39">
    <!-- $e^{\mathcal{L}}$ = 1.65 -->
    <g style="fill: #262626" transform="translate(261.860938 586.421009) scale(0.08328 -0.08328)">
     <defs>
      <path id="DejaVuSans-Oblique-65" d="M 3078 2063 
Q 3088 2113 3092 2166 
Q 3097 2219 3097 2272 
Q 3097 2653 2873 2875 
Q 2650 3097 2266 3097 
Q 1838 3097 1509 2826 
Q 1181 2556 1013 2059 
L 3078 2063 
z
M 3578 1613 
L 903 1613 
Q 884 1494 878 1425 
Q 872 1356 872 1306 
Q 872 872 1139 634 
Q 1406 397 1894 397 
Q 2269 397 2603 481 
Q 2938 566 3225 728 
L 3116 159 
Q 2806 34 2476 -28 
Q 2147 -91 1806 -91 
Q 1078 -91 686 257 
Q 294 606 294 1247 
Q 294 1794 489 2264 
Q 684 2734 1063 3103 
Q 1306 3334 1642 3459 
Q 1978 3584 2356 3584 
Q 2950 3584 3301 3228 
Q 3653 2872 3653 2272 
Q 3653 2128 3634 1964 
Q 3616 1800 3578 1613 
z
" transform="scale(0.015625)"/>
      <path id="STIXNonUnicode-Italic-e238" d="M 4070 915 
L 4179 800 
Q 3347 -45 2413 -45 
Q 2157 -45 1850 26 
Q 1395 122 1146 122 
Q 1005 122 672 61 
Q 339 0 192 0 
L 230 154 
Q 582 154 730 749 
L 1178 2566 
Q 1286 3008 1516 3353 
Q 1747 3699 2025 3894 
Q 2304 4090 2585 4189 
Q 2867 4288 3123 4288 
Q 3443 4288 3593 4083 
Q 3744 3878 3744 3584 
Q 3744 3347 3593 3200 
Q 3443 3053 3226 3053 
Q 3085 3053 2995 3149 
Q 2906 3245 2906 3379 
Q 2906 3482 2957 3552 
Q 3008 3622 3065 3644 
Q 3123 3667 3174 3705 
Q 3226 3744 3226 3789 
Q 3226 4032 2854 4032 
Q 2522 4032 2310 3785 
Q 2099 3539 1990 3132 
Q 1882 2726 1795 2284 
Q 1709 1843 1549 1363 
Q 1389 883 1158 589 
L 1158 563 
Q 1363 704 1888 704 
Q 2227 704 2460 544 
Q 2694 384 2963 384 
Q 3507 384 4070 915 
z
" transform="scale(0.015625)"/>
     </defs>
     <use xlink:href="#DejaVuSans-Oblique-65" transform="translate(0 0.81875)"/>
     <use xlink:href="#STIXNonUnicode-Italic-e238" transform="translate(66.173333 39.1) scale(0.7)"/>
     <use xlink:href="#ArialMT-20" transform="translate(117.4177 0.81875)"/>
     <use xlink:href="#ArialMT-3d" transform="translate(145.200903 0.81875)"/>
     <use xlink:href="#ArialMT-20" transform="translate(203.59934 0.81875)"/>
     <use xlink:href="#ArialMT-31" transform="translate(231.382544 0.81875)"/>
     <use xlink:href="#ArialMT-2e" transform="translate(286.997778 0.81875)"/>
     <use xlink:href="#ArialMT-36" transform="translate(314.780981 0.81875)"/>
     <use xlink:href="#ArialMT-35" transform="translate(370.396215 0.81875)"/>
    </g>
   </g>
   <g id="text_40">
    <!-- $e^{\mathcal{L}}$ = 1.0 -->
    <g style="fill: #262626" transform="translate(345.560937 594.300201) scale(0.08328 -0.08328)">
     <use xlink:href="#DejaVuSans-Oblique-65" transform="translate(0 0.81875)"/>
     <use xlink:href="#STIXNonUnicode-Italic-e238" transform="translate(66.173333 39.1) scale(0.7)"/>
     <use xlink:href="#ArialMT-20" transform="translate(117.4177 0.81875)"/>
     <use xlink:href="#ArialMT-3d" transform="translate(145.200903 0.81875)"/>
     <use xlink:href="#ArialMT-20" transform="translate(203.59934 0.81875)"/>
     <use xlink:href="#ArialMT-31" transform="translate(231.382544 0.81875)"/>
     <use xlink:href="#ArialMT-2e" transform="translate(286.997778 0.81875)"/>
     <use xlink:href="#ArialMT-30" transform="translate(314.780981 0.81875)"/>
    </g>
   </g>
   <g id="text_41">
    <!-- $e^{\mathcal{L}}$ = 0.43 -->
    <g style="fill: #262626" transform="translate(485.060937 603.883052) scale(0.08328 -0.08328)">
     <use xlink:href="#DejaVuSans-Oblique-65" transform="translate(0 0.81875)"/>
     <use xlink:href="#STIXNonUnicode-Italic-e238" transform="translate(66.173333 39.1) scale(0.7)"/>
     <use xlink:href="#ArialMT-20" transform="translate(117.4177 0.81875)"/>
     <use xlink:href="#ArialMT-3d" transform="translate(145.200903 0.81875)"/>
     <use xlink:href="#ArialMT-20" transform="translate(203.59934 0.81875)"/>
     <use xlink:href="#ArialMT-30" transform="translate(231.382544 0.81875)"/>
     <use xlink:href="#ArialMT-2e" transform="translate(286.997778 0.81875)"/>
     <use xlink:href="#ArialMT-34" transform="translate(314.780981 0.81875)"/>
     <use xlink:href="#ArialMT-33" transform="translate(370.396215 0.81875)"/>
    </g>
   </g>
   <g id="PathCollection_7">
    <g clip-path="url(#pe1cedd0608)">
     <use xlink:href="#mf51d7f2014" x="256.860938" y="576.421009" style="stroke: #000000"/>
    </g>
   </g>
   <g id="PathCollection_8">
    <g clip-path="url(#pe1cedd0608)">
     <use xlink:href="#mf51d7f2014" x="340.560937" y="594.300201" style="stroke: #000000"/>
    </g>
   </g>
   <g id="PathCollection_9">
    <g clip-path="url(#pe1cedd0608)">
     <use xlink:href="#mf51d7f2014" x="480.060937" y="609.883052" style="stroke: #000000"/>
    </g>
   </g>
  </g>
  <g id="axes_4">
   <g id="patch_20">
    <path d="M 33.660938 838.8 
L 591.660938 838.8 
L 591.660938 658.017391 
L 33.660938 658.017391 
z
" style="fill: #ffffff"/>
   </g>
   <g id="PolyCollection_5"/>
   <g id="matplotlib.axis_7">
    <g id="xtick_16">
     <g id="line2d_37">
      <g>
       <use xlink:href="#mfc63cabbc6" x="33.660938" y="838.8" style="stroke: #000000; stroke-width: 0.8"/>
      </g>
     </g>
     <g id="text_42">
      <!-- 0.0 -->
      <g transform="translate(26.710938 852.957813) scale(0.1 -0.1)">
       <use xlink:href="#ArialMT-30"/>
       <use xlink:href="#ArialMT-2e" x="55.615234"/>
       <use xlink:href="#ArialMT-30" x="83.398438"/>
      </g>
     </g>
    </g>
    <g id="xtick_17">
     <g id="line2d_38">
      <g>
       <use xlink:href="#mfc63cabbc6" x="145.260938" y="838.8" style="stroke: #000000; stroke-width: 0.8"/>
      </g>
     </g>
     <g id="text_43">
      <!-- 0.2 -->
      <g transform="translate(138.310938 852.957813) scale(0.1 -0.1)">
       <use xlink:href="#ArialMT-30"/>
       <use xlink:href="#ArialMT-2e" x="55.615234"/>
       <use xlink:href="#ArialMT-32" x="83.398438"/>
      </g>
     </g>
    </g>
    <g id="xtick_18">
     <g id="line2d_39">
      <g>
       <use xlink:href="#mfc63cabbc6" x="256.860938" y="838.8" style="stroke: #000000; stroke-width: 0.8"/>
      </g>
     </g>
     <g id="text_44">
      <!-- 0.4 -->
      <g transform="translate(249.910938 852.957813) scale(0.1 -0.1)">
       <use xlink:href="#ArialMT-30"/>
       <use xlink:href="#ArialMT-2e" x="55.615234"/>
       <use xlink:href="#ArialMT-34" x="83.398438"/>
      </g>
     </g>
    </g>
    <g id="xtick_19">
     <g id="line2d_40">
      <g>
       <use xlink:href="#mfc63cabbc6" x="368.460938" y="838.8" style="stroke: #000000; stroke-width: 0.8"/>
      </g>
     </g>
     <g id="text_45">
      <!-- 0.6 -->
      <g transform="translate(361.510938 852.957813) scale(0.1 -0.1)">
       <use xlink:href="#ArialMT-30"/>
       <use xlink:href="#ArialMT-2e" x="55.615234"/>
       <use xlink:href="#ArialMT-36" x="83.398438"/>
      </g>
     </g>
    </g>
    <g id="xtick_20">
     <g id="line2d_41">
      <g>
       <use xlink:href="#mfc63cabbc6" x="480.060938" y="838.8" style="stroke: #000000; stroke-width: 0.8"/>
      </g>
     </g>
     <g id="text_46">
      <!-- 0.8 -->
      <g transform="translate(473.110938 852.957813) scale(0.1 -0.1)">
       <use xlink:href="#ArialMT-30"/>
       <use xlink:href="#ArialMT-2e" x="55.615234"/>
       <use xlink:href="#ArialMT-38" x="83.398438"/>
      </g>
     </g>
    </g>
    <g id="xtick_21">
     <g id="line2d_42">
      <g>
       <use xlink:href="#mfc63cabbc6" x="591.660938" y="838.8" style="stroke: #000000; stroke-width: 0.8"/>
      </g>
     </g>
     <g id="text_47">
      <!-- 1.0 -->
      <g transform="translate(584.710938 852.957813) scale(0.1 -0.1)">
       <use xlink:href="#ArialMT-31"/>
       <use xlink:href="#ArialMT-2e" x="55.615234"/>
       <use xlink:href="#ArialMT-30" x="83.398438"/>
      </g>
     </g>
    </g>
   </g>
   <g id="matplotlib.axis_8">
    <g id="ytick_18">
     <g id="line2d_43">
      <g>
       <use xlink:href="#me45eaf4a0b" x="33.660938" y="838.8" style="stroke: #000000; stroke-width: 0.8"/>
      </g>
     </g>
     <g id="text_48">
      <!-- 0 -->
      <g transform="translate(21.1 842.378906) scale(0.1 -0.1)">
       <use xlink:href="#ArialMT-30"/>
      </g>
     </g>
    </g>
    <g id="ytick_19">
     <g id="line2d_44">
      <g>
       <use xlink:href="#me45eaf4a0b" x="33.660938" y="811.272879" style="stroke: #000000; stroke-width: 0.8"/>
      </g>
     </g>
     <g id="text_49">
      <!-- 1 -->
      <g transform="translate(21.1 814.851785) scale(0.1 -0.1)">
       <use xlink:href="#ArialMT-31"/>
      </g>
     </g>
    </g>
    <g id="ytick_20">
     <g id="line2d_45">
      <g>
       <use xlink:href="#me45eaf4a0b" x="33.660938" y="783.745757" style="stroke: #000000; stroke-width: 0.8"/>
      </g>
     </g>
     <g id="text_50">
      <!-- 2 -->
      <g transform="translate(21.1 787.324663) scale(0.1 -0.1)">
       <use xlink:href="#ArialMT-32"/>
      </g>
     </g>
    </g>
    <g id="ytick_21">
     <g id="line2d_46">
      <g>
       <use xlink:href="#me45eaf4a0b" x="33.660938" y="756.218636" style="stroke: #000000; stroke-width: 0.8"/>
      </g>
     </g>
     <g id="text_51">
      <!-- 3 -->
      <g transform="translate(21.1 759.797542) scale(0.1 -0.1)">
       <use xlink:href="#ArialMT-33"/>
      </g>
     </g>
    </g>
    <g id="ytick_22">
     <g id="line2d_47">
      <g>
       <use xlink:href="#me45eaf4a0b" x="33.660938" y="728.691514" style="stroke: #000000; stroke-width: 0.8"/>
      </g>
     </g>
     <g id="text_52">
      <!-- 4 -->
      <g transform="translate(21.1 732.27042) scale(0.1 -0.1)">
       <use xlink:href="#ArialMT-34"/>
      </g>
     </g>
    </g>
    <g id="ytick_23">
     <g id="line2d_48">
      <g>
       <use xlink:href="#me45eaf4a0b" x="33.660938" y="701.164393" style="stroke: #000000; stroke-width: 0.8"/>
      </g>
     </g>
     <g id="text_53">
      <!-- 5 -->
      <g transform="translate(21.1 704.743299) scale(0.1 -0.1)">
       <use xlink:href="#ArialMT-35"/>
      </g>
     </g>
    </g>
    <g id="ytick_24">
     <g id="line2d_49">
      <g>
       <use xlink:href="#me45eaf4a0b" x="33.660938" y="673.637271" style="stroke: #000000; stroke-width: 0.8"/>
      </g>
     </g>
     <g id="text_54">
      <!-- 6 -->
      <g transform="translate(21.1 677.216177) scale(0.1 -0.1)">
       <use xlink:href="#ArialMT-36"/>
      </g>
     </g>
    </g>
   </g>
   <g id="line2d_50">
    <path d="M 34.746922 666.626087 
L 35.290728 679.094594 
L 35.941734 689.076372 
L 36.698354 697.349179 
L 37.558654 704.378507 
L 38.525851 710.495158 
L 39.606933 715.928632 
L 40.797412 720.786308 
L 42.093745 725.160608 
L 43.51005 729.171949 
L 45.054516 732.886453 
L 46.740522 736.362469 
L 48.565896 739.615349 
L 50.52638 742.659229 
L 52.66915 745.575515 
L 55.001429 748.370185 
L 57.529682 751.048904 
L 60.259521 753.617042 
L 63.233891 756.110022 
L 66.507704 758.559471 
L 70.059355 760.936362 
L 73.950699 763.270547 
L 78.205789 765.561619 
L 82.905658 767.835261 
L 88.026546 770.063529 
L 93.658632 772.270641 
L 99.910345 774.477684 
L 106.75938 776.657104 
L 114.324238 778.828689 
L 122.743477 781.00922 
L 131.993004 783.171698 
L 142.218129 785.331743 
L 153.582305 787.502056 
L 166.155761 789.67443 
L 180.228388 791.875414 
L 195.877607 794.092695 
L 213.281936 796.329978 
L 232.7365 798.602977 
L 254.656381 800.935261 
L 279.417352 803.340883 
L 307.712683 805.860484 
L 340.582608 808.558016 
L 380.839843 811.628903 
L 442.539864 816.080978 
L 499.619247 820.2714 
L 527.223213 822.515139 
L 546.215007 824.270353 
L 559.881653 825.745749 
L 569.754972 827.023922 
L 576.84334 828.153547 
L 581.873376 829.167751 
L 585.377421 830.088534 
L 587.756322 830.929959 
L 589.336972 831.71094 
L 590.360575 832.451776 
L 591.001886 833.17945 
L 591.387109 833.949825 
L 591.512508 834.398971 
L 591.512508 834.398971 
" clip-path="url(#p334cc4ada7)" style="fill: none; stroke: #1f77b4; stroke-width: 1.5; stroke-linecap: round"/>
   </g>
   <g id="line2d_51">
    <path d="M 190.934036 838.8 
L 190.934036 793.415449 
" clip-path="url(#p334cc4ada7)" style="fill: none; stroke-dasharray: 2.96,1.28; stroke-dashoffset: 0; stroke: #000000; stroke-width: 0.8"/>
   </g>
   <g id="line2d_52">
    <path d="M 376.04137 838.8 
L 376.04137 811.272879 
" clip-path="url(#p334cc4ada7)" style="fill: none; stroke-dasharray: 2.96,1.28; stroke-dashoffset: 0; stroke: #000000; stroke-width: 0.8"/>
   </g>
   <g id="line2d_53">
    <path d="M 568.430137 838.8 
L 568.430137 826.836762 
" clip-path="url(#p334cc4ada7)" style="fill: none; stroke-dasharray: 2.96,1.28; stroke-dashoffset: 0; stroke: #000000; stroke-width: 0.8"/>
   </g>
   <g id="patch_21">
    <path d="M 33.660938 838.8 
L 33.660938 658.017391 
" style="fill: none; stroke: #000000; stroke-width: 0.8; stroke-linejoin: miter; stroke-linecap: square"/>
   </g>
   <g id="patch_22">
    <path d="M 591.660938 838.8 
L 591.660938 658.017391 
" style="fill: none; stroke: #000000; stroke-width: 0.8; stroke-linejoin: miter; stroke-linecap: square"/>
   </g>
   <g id="patch_23">
    <path d="M 33.660938 838.8 
L 591.660938 838.8 
" style="fill: none; stroke: #000000; stroke-width: 0.8; stroke-linejoin: miter; stroke-linecap: square"/>
   </g>
   <g id="patch_24">
    <path d="M 33.660938 658.017391 
L 591.660938 658.017391 
" style="fill: none; stroke: #000000; stroke-width: 0.8; stroke-linejoin: miter; stroke-linecap: square"/>
   </g>
   <g id="text_55">
    <!-- $\mathcal{L}(0.28) = 1.65$ -->
    <g style="fill: #262626" transform="translate(195.934036 803.415449) scale(0.08328 -0.08328)">
     <defs>
      <path id="DejaVuSans-28" d="M 1984 4856 
Q 1566 4138 1362 3434 
Q 1159 2731 1159 2009 
Q 1159 1288 1364 580 
Q 1569 -128 1984 -844 
L 1484 -844 
Q 1016 -109 783 600 
Q 550 1309 550 2009 
Q 550 2706 781 3412 
Q 1013 4119 1484 4856 
L 1984 4856 
z
" transform="scale(0.015625)"/>
      <path id="DejaVuSans-30" d="M 2034 4250 
Q 1547 4250 1301 3770 
Q 1056 3291 1056 2328 
Q 1056 1369 1301 889 
Q 1547 409 2034 409 
Q 2525 409 2770 889 
Q 3016 1369 3016 2328 
Q 3016 3291 2770 3770 
Q 2525 4250 2034 4250 
z
M 2034 4750 
Q 2819 4750 3233 4129 
Q 3647 3509 3647 2328 
Q 3647 1150 3233 529 
Q 2819 -91 2034 -91 
Q 1250 -91 836 529 
Q 422 1150 422 2328 
Q 422 3509 836 4129 
Q 1250 4750 2034 4750 
z
" transform="scale(0.015625)"/>
      <path id="DejaVuSans-2e" d="M 684 794 
L 1344 794 
L 1344 0 
L 684 0 
L 684 794 
z
" transform="scale(0.015625)"/>
      <path id="DejaVuSans-32" d="M 1228 531 
L 3431 531 
L 3431 0 
L 469 0 
L 469 531 
Q 828 903 1448 1529 
Q 2069 2156 2228 2338 
Q 2531 2678 2651 2914 
Q 2772 3150 2772 3378 
Q 2772 3750 2511 3984 
Q 2250 4219 1831 4219 
Q 1534 4219 1204 4116 
Q 875 4013 500 3803 
L 500 4441 
Q 881 4594 1212 4672 
Q 1544 4750 1819 4750 
Q 2544 4750 2975 4387 
Q 3406 4025 3406 3419 
Q 3406 3131 3298 2873 
Q 3191 2616 2906 2266 
Q 2828 2175 2409 1742 
Q 1991 1309 1228 531 
z
" transform="scale(0.015625)"/>
      <path id="DejaVuSans-38" d="M 2034 2216 
Q 1584 2216 1326 1975 
Q 1069 1734 1069 1313 
Q 1069 891 1326 650 
Q 1584 409 2034 409 
Q 2484 409 2743 651 
Q 3003 894 3003 1313 
Q 3003 1734 2745 1975 
Q 2488 2216 2034 2216 
z
M 1403 2484 
Q 997 2584 770 2862 
Q 544 3141 544 3541 
Q 544 4100 942 4425 
Q 1341 4750 2034 4750 
Q 2731 4750 3128 4425 
Q 3525 4100 3525 3541 
Q 3525 3141 3298 2862 
Q 3072 2584 2669 2484 
Q 3125 2378 3379 2068 
Q 3634 1759 3634 1313 
Q 3634 634 3220 271 
Q 2806 -91 2034 -91 
Q 1263 -91 848 271 
Q 434 634 434 1313 
Q 434 1759 690 2068 
Q 947 2378 1403 2484 
z
M 1172 3481 
Q 1172 3119 1398 2916 
Q 1625 2713 2034 2713 
Q 2441 2713 2670 2916 
Q 2900 3119 2900 3481 
Q 2900 3844 2670 4047 
Q 2441 4250 2034 4250 
Q 1625 4250 1398 4047 
Q 1172 3844 1172 3481 
z
" transform="scale(0.015625)"/>
      <path id="DejaVuSans-29" d="M 513 4856 
L 1013 4856 
Q 1481 4119 1714 3412 
Q 1947 2706 1947 2009 
Q 1947 1309 1714 600 
Q 1481 -109 1013 -844 
L 513 -844 
Q 928 -128 1133 580 
Q 1338 1288 1338 2009 
Q 1338 2731 1133 3434 
Q 928 4138 513 4856 
z
" transform="scale(0.015625)"/>
      <path id="DejaVuSans-3d" d="M 678 2906 
L 4684 2906 
L 4684 2381 
L 678 2381 
L 678 2906 
z
M 678 1631 
L 4684 1631 
L 4684 1100 
L 678 1100 
L 678 1631 
z
" transform="scale(0.015625)"/>
      <path id="DejaVuSans-31" d="M 794 531 
L 1825 531 
L 1825 4091 
L 703 3866 
L 703 4441 
L 1819 4666 
L 2450 4666 
L 2450 531 
L 3481 531 
L 3481 0 
L 794 0 
L 794 531 
z
" transform="scale(0.015625)"/>
      <path id="DejaVuSans-36" d="M 2113 2584 
Q 1688 2584 1439 2293 
Q 1191 2003 1191 1497 
Q 1191 994 1439 701 
Q 1688 409 2113 409 
Q 2538 409 2786 701 
Q 3034 994 3034 1497 
Q 3034 2003 2786 2293 
Q 2538 2584 2113 2584 
z
M 3366 4563 
L 3366 3988 
Q 3128 4100 2886 4159 
Q 2644 4219 2406 4219 
Q 1781 4219 1451 3797 
Q 1122 3375 1075 2522 
Q 1259 2794 1537 2939 
Q 1816 3084 2150 3084 
Q 2853 3084 3261 2657 
Q 3669 2231 3669 1497 
Q 3669 778 3244 343 
Q 2819 -91 2113 -91 
Q 1303 -91 875 529 
Q 447 1150 447 2328 
Q 447 3434 972 4092 
Q 1497 4750 2381 4750 
Q 2619 4750 2861 4703 
Q 3103 4656 3366 4563 
z
" transform="scale(0.015625)"/>
      <path id="DejaVuSans-35" d="M 691 4666 
L 3169 4666 
L 3169 4134 
L 1269 4134 
L 1269 2991 
Q 1406 3038 1543 3061 
Q 1681 3084 1819 3084 
Q 2600 3084 3056 2656 
Q 3513 2228 3513 1497 
Q 3513 744 3044 326 
Q 2575 -91 1722 -91 
Q 1428 -91 1123 -41 
Q 819 9 494 109 
L 494 744 
Q 775 591 1075 516 
Q 1375 441 1709 441 
Q 2250 441 2565 725 
Q 2881 1009 2881 1497 
Q 2881 1984 2565 2268 
Q 2250 2553 1709 2553 
Q 1456 2553 1204 2497 
Q 953 2441 691 2322 
L 691 4666 
z
" transform="scale(0.015625)"/>
     </defs>
     <use xlink:href="#STIXNonUnicode-Italic-e238" transform="translate(0 0.125)"/>
     <use xlink:href="#DejaVuSans-28" transform="translate(69.299988 0.125)"/>
     <use xlink:href="#DejaVuSans-30" transform="translate(108.31366 0.125)"/>
     <use xlink:href="#DejaVuSans-2e" transform="translate(171.936707 0.125)"/>
     <use xlink:href="#DejaVuSans-32" transform="translate(198.223816 0.125)"/>
     <use xlink:href="#DejaVuSans-38" transform="translate(261.846863 0.125)"/>
     <use xlink:href="#DejaVuSans-29" transform="translate(325.46991 0.125)"/>
     <use xlink:href="#DejaVuSans-3d" transform="translate(383.966003 0.125)"/>
     <use xlink:href="#DejaVuSans-31" transform="translate(487.237488 0.125)"/>
     <use xlink:href="#DejaVuSans-2e" transform="translate(550.860535 0.125)"/>
     <use xlink:href="#DejaVuSans-36" transform="translate(582.647644 0.125)"/>
     <use xlink:href="#DejaVuSans-35" transform="translate(646.270691 0.125)"/>
    </g>
   </g>
   <g id="text_56">
    <!-- $\mathcal{L}(0.61) = 1.0$ -->
    <g style="fill: #262626" transform="translate(381.04137 811.272879) scale(0.08328 -0.08328)">
     <use xlink:href="#STIXNonUnicode-Italic-e238" transform="translate(0 0.125)"/>
     <use xlink:href="#DejaVuSans-28" transform="translate(69.299988 0.125)"/>
     <use xlink:href="#DejaVuSans-30" transform="translate(108.31366 0.125)"/>
     <use xlink:href="#DejaVuSans-2e" transform="translate(171.936707 0.125)"/>
     <use xlink:href="#DejaVuSans-36" transform="translate(203.723816 0.125)"/>
     <use xlink:href="#DejaVuSans-31" transform="translate(267.346863 0.125)"/>
     <use xlink:href="#DejaVuSans-29" transform="translate(330.96991 0.125)"/>
     <use xlink:href="#DejaVuSans-3d" transform="translate(389.466003 0.125)"/>
     <use xlink:href="#DejaVuSans-31" transform="translate(492.737488 0.125)"/>
     <use xlink:href="#DejaVuSans-2e" transform="translate(556.360535 0.125)"/>
     <use xlink:href="#DejaVuSans-30" transform="translate(588.147644 0.125)"/>
    </g>
   </g>
   <g id="text_57">
    <!-- $\mathcal{L}(0.96) = 0.43$ -->
    <g style="fill: #262626" transform="translate(573.430137 820.836762) scale(0.08328 -0.08328)">
     <defs>
      <path id="DejaVuSans-39" d="M 703 97 
L 703 672 
Q 941 559 1184 500 
Q 1428 441 1663 441 
Q 2288 441 2617 861 
Q 2947 1281 2994 2138 
Q 2813 1869 2534 1725 
Q 2256 1581 1919 1581 
Q 1219 1581 811 2004 
Q 403 2428 403 3163 
Q 403 3881 828 4315 
Q 1253 4750 1959 4750 
Q 2769 4750 3195 4129 
Q 3622 3509 3622 2328 
Q 3622 1225 3098 567 
Q 2575 -91 1691 -91 
Q 1453 -91 1209 -44 
Q 966 3 703 97 
z
M 1959 2075 
Q 2384 2075 2632 2365 
Q 2881 2656 2881 3163 
Q 2881 3666 2632 3958 
Q 2384 4250 1959 4250 
Q 1534 4250 1286 3958 
Q 1038 3666 1038 3163 
Q 1038 2656 1286 2365 
Q 1534 2075 1959 2075 
z
" transform="scale(0.015625)"/>
      <path id="DejaVuSans-34" d="M 2419 4116 
L 825 1625 
L 2419 1625 
L 2419 4116 
z
M 2253 4666 
L 3047 4666 
L 3047 1625 
L 3713 1625 
L 3713 1100 
L 3047 1100 
L 3047 0 
L 2419 0 
L 2419 1100 
L 313 1100 
L 313 1709 
L 2253 4666 
z
" transform="scale(0.015625)"/>
      <path id="DejaVuSans-33" d="M 2597 2516 
Q 3050 2419 3304 2112 
Q 3559 1806 3559 1356 
Q 3559 666 3084 287 
Q 2609 -91 1734 -91 
Q 1441 -91 1130 -33 
Q 819 25 488 141 
L 488 750 
Q 750 597 1062 519 
Q 1375 441 1716 441 
Q 2309 441 2620 675 
Q 2931 909 2931 1356 
Q 2931 1769 2642 2001 
Q 2353 2234 1838 2234 
L 1294 2234 
L 1294 2753 
L 1863 2753 
Q 2328 2753 2575 2939 
Q 2822 3125 2822 3475 
Q 2822 3834 2567 4026 
Q 2313 4219 1838 4219 
Q 1578 4219 1281 4162 
Q 984 4106 628 3988 
L 628 4550 
Q 988 4650 1302 4700 
Q 1616 4750 1894 4750 
Q 2613 4750 3031 4423 
Q 3450 4097 3450 3541 
Q 3450 3153 3228 2886 
Q 3006 2619 2597 2516 
z
" transform="scale(0.015625)"/>
     </defs>
     <use xlink:href="#STIXNonUnicode-Italic-e238" transform="translate(0 0.125)"/>
     <use xlink:href="#DejaVuSans-28" transform="translate(69.299988 0.125)"/>
     <use xlink:href="#DejaVuSans-30" transform="translate(108.31366 0.125)"/>
     <use xlink:href="#DejaVuSans-2e" transform="translate(171.936707 0.125)"/>
     <use xlink:href="#DejaVuSans-39" transform="translate(203.723816 0.125)"/>
     <use xlink:href="#DejaVuSans-36" transform="translate(267.346863 0.125)"/>
     <use xlink:href="#DejaVuSans-29" transform="translate(330.96991 0.125)"/>
     <use xlink:href="#DejaVuSans-3d" transform="translate(389.466003 0.125)"/>
     <use xlink:href="#DejaVuSans-30" transform="translate(492.737488 0.125)"/>
     <use xlink:href="#DejaVuSans-2e" transform="translate(556.360535 0.125)"/>
     <use xlink:href="#DejaVuSans-34" transform="translate(588.147644 0.125)"/>
     <use xlink:href="#DejaVuSans-33" transform="translate(651.770691 0.125)"/>
    </g>
   </g>
   <g id="PathCollection_10">
    <g clip-path="url(#p334cc4ada7)">
     <use xlink:href="#mf51d7f2014" x="190.934036" y="793.415449" style="stroke: #000000"/>
    </g>
   </g>
   <g id="PathCollection_11">
    <g clip-path="url(#p334cc4ada7)">
     <use xlink:href="#mf51d7f2014" x="376.04137" y="811.272879" style="stroke: #000000"/>
    </g>
   </g>
   <g id="PathCollection_12">
    <g clip-path="url(#p334cc4ada7)">
     <use xlink:href="#mf51d7f2014" x="568.430137" y="826.836762" style="stroke: #000000"/>
    </g>
   </g>
  </g>
 </g>
 <defs>
  <clipPath id="p98ac78bf24">
   <rect x="33.660938" y="7.2" width="558" height="180.782609"/>
  </clipPath>
  <clipPath id="p7ff22b84d0">
   <rect x="33.660938" y="224.13913" width="558" height="180.782609"/>
  </clipPath>
  <clipPath id="pe1cedd0608">
   <rect x="33.660938" y="441.078261" width="558" height="180.782609"/>
  </clipPath>
  <clipPath id="p334cc4ada7">
   <rect x="33.660938" y="658.017391" width="558" height="180.782609"/>
  </clipPath>
 </defs>
</svg>
